<?xml version="1.0" encoding="UTF-8" standalone="no"?>
<!-- Created with Inkscape (http://www.inkscape.org/) -->

<svg
   xmlns:dc="http://purl.org/dc/elements/1.1/"
   xmlns:cc="http://creativecommons.org/ns#"
   xmlns:rdf="http://www.w3.org/1999/02/22-rdf-syntax-ns#"
   xmlns:svg="http://www.w3.org/2000/svg"
   xmlns="http://www.w3.org/2000/svg"
   xmlns:sodipodi="http://sodipodi.sourceforge.net/DTD/sodipodi-0.dtd"
   xmlns:inkscape="http://www.inkscape.org/namespaces/inkscape"
   width="210mm"
   height="297mm"
   id="svg3176"
   version="1.1"
   inkscape:version="0.48.0 r9654"
   sodipodi:docname="ghost.svg"
   inkscape:export-filename="/home/fred/projets/einheri/files/share/ghost.png"
   inkscape:export-xdpi="90.756081"
   inkscape:export-ydpi="90.756081">
  <defs
     id="defs3178">
    <filter
       inkscape:collect="always"
       id="filter3982"
       x="-0.20294118"
       width="1.4058824"
       y="-0.29361702"
       height="1.587234">
      <feGaussianBlur
         inkscape:collect="always"
         stdDeviation="16.428572"
         id="feGaussianBlur3984" />
    </filter>
  </defs>
  <sodipodi:namedview
     id="base"
     pagecolor="#ffffff"
     bordercolor="#666666"
     borderopacity="1.0"
     inkscape:pageopacity="0.0"
     inkscape:pageshadow="2"
     inkscape:zoom="1.4"
     inkscape:cx="233.7725"
     inkscape:cy="558.05746"
     inkscape:document-units="px"
     inkscape:current-layer="layer1"
     showgrid="false"
     showguides="false"
     inkscape:window-width="1440"
     inkscape:window-height="823"
     inkscape:window-x="0"
     inkscape:window-y="24"
     inkscape:window-maximized="1" />
  <metadata
     id="metadata3181">
    <rdf:RDF>
      <cc:Work
         rdf:about="">
        <dc:format>image/svg+xml</dc:format>
        <dc:type
           rdf:resource="http://purl.org/dc/dcmitype/StillImage" />
        <dc:title />
      </cc:Work>
    </rdf:RDF>
  </metadata>
  <g
     inkscape:label="Calque 1"
     inkscape:groupmode="layer"
     id="layer1">
    <path
       style="fill:#000011;fill-opacity:1;stroke:none"
       d="m 288.6019,474.25547 -4.47046,13.96066 c 0,0 60.04934,45.90479 63.64433,52.22 3.59504,6.31519 0.11438,9.93364 -0.11298,13.73078 -0.22734,3.79715 -7.99982,50.31389 -7.99982,50.31389 l -6.45316,8.76447 9.17811,-5.57623 c 0,0 2.16664,-47.61494 12.69329,-47.08364 10.52667,0.53131 10.41131,35.20153 10.41131,35.20153 l -3.66098,10.82273 7.49818,-10.3368 c 0.70436,-8.92866 -7.76976,-38.1301 -1.68338,-40.23047 6.08638,-2.10036 18.93986,23.82153 18.93986,23.82153 l 0.3218,13.35945 2.73231,-14.01167 c 0,0 -21.52385,-36.96192 -26.4372,-41.22505 -4.91333,-4.26312 -4.09749,0.42007 -11.47723,-4.35628 -7.37974,-4.77633 -63.12396,-59.37488 -63.12396,-59.37488 z"
       id="path4014-3"
       inkscape:connector-curvature="0"
       sodipodi:nodetypes="cczzccczccczccczzc" />
    <path
       style="fill:#000011;fill-opacity:1;stroke:none"
       d="m 266.69347,468.68411 4.47046,13.96066 c 0,0 -60.04934,45.90479 -63.64433,52.22 -3.59504,6.31519 -0.11438,9.93364 0.11298,13.73078 0.22734,3.79715 7.99982,50.31389 7.99982,50.31389 l 6.45316,8.76447 -9.17811,-5.57623 c 0,0 -2.16664,-47.61494 -12.69329,-47.08364 -10.52667,0.53131 -10.41131,35.20153 -10.41131,35.20153 l 3.66098,10.82273 -7.49818,-10.3368 c -0.70436,-8.92866 7.76976,-38.1301 1.68338,-40.23047 -6.08638,-2.10036 -18.93986,23.82153 -18.93986,23.82153 l -0.3218,13.35945 -2.73231,-14.01167 c 0,0 21.52385,-36.96192 26.4372,-41.22505 4.91333,-4.26312 4.09749,0.42007 11.47723,-4.35628 7.37974,-4.77633 63.12396,-59.37488 63.12396,-59.37488 z"
       id="path4014"
       inkscape:connector-curvature="0"
       sodipodi:nodetypes="cczzccczccczccczzc" />
    <path
       sodipodi:type="arc"
       style="fill:#eeeaff;fill-opacity:1;fill-rule:evenodd;stroke:none;filter:url(#filter3982)"
       id="path3184"
       sodipodi:cx="288.57144"
       sodipodi:cy="453.79074"
       sodipodi:rx="97.14286"
       sodipodi:ry="67.14286"
       d="m 385.7143,453.79074 a 97.14286,67.14286 0 1 1 -194.28572,0 97.14286,67.14286 0 1 1 194.28572,0 z"
       transform="matrix(0.84832639,0,0,1.0794037,39.482965,-0.8667532)" />
  </g>
</svg>
